<svg width="115" height="33" viewBox="0 0 115 33" fill="none" xmlns="http://www.w3.org/2000/svg">
<path fill-rule="evenodd" clip-rule="evenodd" d="M51.3594 15.0007C51.3446 15.0007 51.3335 15.0017 51.3259 15.0143L48.5735 18.2839L45.8677 15.0161C45.8581 15.0017 45.8437 15.0007 45.8342 15.0007H42.2543C42.2433 15.0007 42.2236 15.0143 42.2174 15.0222C42.2126 15.0427 42.2126 15.0586 42.2236 15.074L46.7115 20.4531L42.1709 25.8826C42.158 25.8933 42.158 25.9124 42.1642 25.9259C42.1772 25.9404 42.1901 25.953 42.2078 25.953H45.0737C45.0867 25.953 45.0982 25.9451 45.1082 25.9357L48.1893 22.2705L51.2693 25.9357C51.2794 25.9451 51.2904 25.953 51.3062 25.953H54.8827C54.8957 25.953 54.9148 25.9404 54.9215 25.9278C54.9326 25.9152 54.9263 25.8965 54.9168 25.884L50.0499 20.0561L54.3073 15.074C54.3202 15.06 54.324 15.0441 54.3154 15.0222C54.3073 15.0143 54.2914 15.0007 54.2737 15.0007H51.3594Z" fill="#00355F"/>
<path fill-rule="evenodd" clip-rule="evenodd" d="M68.1624 20.4937C68.1624 23.943 70.7182 26.441 74.2468 26.441C75.6024 26.441 77.3298 25.9591 79.0538 25.2552C79.0663 25.2519 79.0773 25.2412 79.0826 25.2225L79.084 22.7651C79.084 22.7352 79.0505 22.7054 79.0169 22.7245C77.1673 23.6836 75.8563 24.0913 74.6225 24.0913C72.6172 24.0913 71.3819 23.037 71.2099 21.179H79.3974C79.4103 21.179 79.4295 21.1743 79.4376 21.1585C79.4405 21.1291 79.5277 20.0342 79.5277 19.5631C79.5277 16.6601 77.4601 14.5502 74.2468 14.5502C70.7182 14.5502 68.1624 17.0543 68.1624 20.4937ZM74.2468 16.9279C75.6747 16.9279 76.658 18.0834 76.658 19.3881V19.4931H71.2674C71.5764 17.866 72.6603 16.9279 74.2468 16.9279Z" fill="#00355F"/>
<path fill-rule="evenodd" clip-rule="evenodd" d="M94.2482 10.9945C94.2482 11.9569 95.0642 12.7373 96.0685 12.7373C97.0738 12.7373 97.8922 11.9569 97.8922 10.9945C97.8922 10.0028 97.0738 9.19434 96.0685 9.19434C95.0642 9.19434 94.2482 10.0014 94.2482 10.9945ZM94.5889 15.0017C94.5678 15.0035 94.5515 15.0208 94.5515 15.0441V25.9059C94.5515 25.9357 94.5678 25.953 94.5984 25.953H97.5386C97.5592 25.953 97.5803 25.9371 97.5803 25.9059V15.0441C97.5803 15.0222 97.5693 15.0035 97.5448 15.0017H94.5889Z" fill="#00355F"/>
<path fill-rule="evenodd" clip-rule="evenodd" d="M58.5316 15.0008H55.5881C55.5623 15.0008 55.5493 15.0162 55.5493 15.0428V32.8571C56.4367 32.7335 57.524 32.4298 58.5815 31.6965V26.2749C59.3079 26.3766 59.9083 26.4424 60.4838 26.4424C64.5145 26.4424 67.1241 24.0913 67.1241 20.4531C67.126 16.9778 64.6434 14.553 61.0957 14.553C60.2605 14.553 59.4167 14.7018 58.5316 15.0008ZM58.5829 24.0806L58.5911 17.1107C59.3256 16.8822 59.9663 16.7777 60.5993 16.7777C62.6463 16.7777 64.0229 18.2476 64.0229 20.4359C64.0229 22.7935 62.5562 24.3152 60.2892 24.3152C59.7593 24.3152 59.2111 24.2429 58.5829 24.0806Z" fill="#00355F"/>
<path fill-rule="evenodd" clip-rule="evenodd" d="M89.2141 9.24943V14.9346C88.3497 14.6938 87.5902 14.5828 86.8221 14.5828C83.3127 14.5828 80.6667 17.1574 80.6667 20.5735C80.6667 23.9756 83.0027 26.4424 86.2179 26.4424C87.3296 26.4424 88.3722 26.1737 89.5951 25.5617L89.5936 26.538C90.402 26.392 91.3335 26.0729 92.2477 25.4446V8.08228C91.3498 8.20403 90.2846 8.49185 89.2141 9.24943ZM83.7775 20.7503C83.7775 18.3147 85.1767 16.7431 87.3329 16.7431C87.929 16.7431 88.5074 16.8835 89.2141 17.1933V23.4144C88.2889 23.8837 87.468 24.1104 86.698 24.1104C84.8714 24.1104 83.7775 22.8514 83.7775 20.7503Z" fill="#00355F"/>
<path fill-rule="evenodd" clip-rule="evenodd" d="M99.2861 20.6724C99.2861 24.1324 101.608 26.4438 105.061 26.4438C105.986 26.4438 107.169 26.3879 108.278 25.1428V26.5395C109.062 26.3785 109.987 26.0562 110.863 25.4399L110.866 14.8693C110.866 14.7988 110.804 14.7452 110.739 14.7452L108.348 14.7503C108.279 14.7503 108.216 14.8082 108.216 14.8758V15.2728H108.157C107.055 14.7988 106.113 14.5847 105.188 14.5847C101.88 14.5847 99.2861 17.2516 99.2861 20.6724ZM102.363 20.7741C102.363 18.3773 103.743 16.7693 105.795 16.7693C106.343 16.7693 107.009 16.9713 107.828 17.3893V23.3953C106.937 23.8912 106.171 24.1338 105.491 24.1338C103.536 24.1338 102.363 22.884 102.363 20.7741Z" fill="#00355F"/>
<path fill-rule="evenodd" clip-rule="evenodd" d="M30.8741 10.0061C30.8693 10.0172 30.863 10.0298 30.863 10.042V16.8933V24.2965C30.863 24.3072 30.8693 24.318 30.8741 24.3343C30.9661 25.2346 31.7447 25.9451 32.6882 25.9451H32.7735H34.0409H40.41C41.054 24.9846 41.3338 24.0399 41.4478 23.2329H34.0246H34.0231H34.0246V17.7815H40.3309C40.3553 17.7815 40.3745 17.7629 40.3745 17.7428V15.046C40.3745 15.0241 40.3553 15.0036 40.3309 15.0036H34.0246V11.1228H40.3922C41.0381 10.1656 41.3175 9.19576 41.4315 8.39013H32.7735C32.7476 8.39013 32.7203 8.38733 32.6882 8.38733C31.7447 8.38733 30.9675 9.10526 30.8741 10.0061Z" fill="#00355F"/>
<path fill-rule="evenodd" clip-rule="evenodd" d="M111.913 15.5699C111.913 16.3489 112.492 16.946 113.305 16.946C114.044 16.946 114.691 16.3975 114.691 15.5699C114.691 14.733 114.045 14.184 113.305 14.184C112.555 14.184 111.913 14.733 111.913 15.5699ZM112.117 15.5699C112.117 14.8314 112.638 14.3216 113.305 14.3216C113.966 14.3216 114.486 14.8314 114.486 15.5699C114.487 16.2972 113.966 16.8038 113.305 16.8038C112.573 16.8038 112.117 16.2486 112.117 15.5699Z" fill="#00355F"/>
<path fill-rule="evenodd" clip-rule="evenodd" d="M112.717 14.7451V16.3802H112.99V15.6842H113.249L113.682 16.3802H113.992L113.523 15.6636C113.777 15.6342 113.962 15.512 113.962 15.2163C113.962 14.8879 113.755 14.7451 113.352 14.7451H112.717ZM112.969 14.949H113.319C113.496 14.949 113.705 14.9737 113.705 15.1822C113.705 15.4276 113.51 15.4509 113.297 15.4509H112.969V14.949Z" fill="#00355F"/>
<path fill-rule="evenodd" clip-rule="evenodd" d="M23.3291 24.9853C23.3291 25.7923 23.8975 26.4058 24.695 26.4058C25.4226 26.4058 26.0534 25.8375 26.0534 24.9853C26.0534 24.1274 25.4226 23.5601 24.695 23.5601C23.9586 23.5601 23.3291 24.1283 23.3291 24.9853ZM23.5319 24.9839C23.5319 24.2268 24.0407 23.708 24.695 23.708C25.3451 23.708 25.8521 24.2268 25.8521 24.9839C25.8521 25.7347 25.3451 26.2631 24.695 26.2631C23.9778 26.2631 23.5319 25.691 23.5319 24.9839Z" fill="#00355F"/>
<path fill-rule="evenodd" clip-rule="evenodd" d="M24.1176 24.1414V25.8231H24.3898V25.1064H24.64L25.0667 25.8231H25.3718L24.9122 25.0872C25.1591 25.0517 25.3422 24.9311 25.3422 24.6232C25.3422 24.285 25.1357 24.1414 24.7437 24.1414H24.1176ZM24.371 24.3494H24.7109C24.8855 24.3494 25.0915 24.3739 25.0915 24.5895C25.0915 24.8451 24.8996 24.8667 24.6874 24.8667H24.371V24.3494Z" fill="#00355F"/>
<path fill-rule="evenodd" clip-rule="evenodd" d="M0.760856 9.37488C0.0103046 11.5346 -0.166185 13.7592 0.148774 15.869L11.0193 12.0097L15.3147 10.755L14.7904 9.22452L10.3143 3.11184L11.1184 2.90432L18.829 9.72891L23.3684 8.40021C23.9021 8.2585 24.5048 8.23064 24.9691 8.23256C23.5426 5.08039 20.9319 2.49697 17.4865 1.24225C16.0347 0.711926 14.5524 0.460693 13.095 0.460693C7.71202 0.460213 2.66798 3.89004 0.760856 9.37488Z" fill="#00355F"/>
<path fill-rule="evenodd" clip-rule="evenodd" d="M23.8829 10.2395L19.3345 11.5682L16.2967 21.5354L15.5114 21.7996L16.1535 14.1858L15.7949 12.6044L11.5328 13.849L0.266602 16.5631C1.16079 20.9974 4.22823 24.8619 8.70244 26.4918C15.5175 28.9801 23.0019 25.3337 25.4272 18.3654C26.4706 15.3617 26.404 12.2287 25.4488 9.43445C25.0475 9.70153 24.4635 10.045 23.8829 10.2395Z" fill="#00355F"/>
<path fill-rule="evenodd" clip-rule="evenodd" d="M10.3157 3.11182L14.7922 9.22449L15.3161 10.7549L11.0212 12.0116L0.150146 15.8704C0.184881 16.1038 0.222902 16.3363 0.26984 16.565L11.5356 13.8504L15.7948 12.6044L16.1535 14.1857L15.5113 21.7996L16.2966 21.5354L19.3345 11.5682L23.8829 10.2395C24.4635 10.045 25.0474 9.7015 25.4487 9.43441C25.3075 9.0285 25.145 8.62403 24.9704 8.23253C24.5076 8.22965 23.903 8.25847 23.3698 8.40018L18.8308 9.72888L11.1202 2.9043L10.3157 3.11182Z" fill="#FFD200"/>
</svg>
